<?xml version="1.0" encoding="UTF-8"?>
<svg id="Layer_2" data-name="Layer 2" xmlns="http://www.w3.org/2000/svg" xmlns:xlink="http://www.w3.org/1999/xlink" viewBox="0 0 704.39 191.62" preserveAspectRatio="xMidYMin slice" >
  <defs>
    <style>
      .cls-1 {
        fill: url(#linear-gradient);
        
      }
    </style>
     <clipPath id="clipPath">
          <rect x="15" y="15" width="40" height="40" />
      </clipPath>
    <linearGradient id="linear-gradient" x1="352.19" y1="191.62" x2="352.19" y2="0" gradientUnits="userSpaceOnUse">
      <stop offset=".05" stop-color="#063347"/>
      <stop offset=".39" stop-color="#0b404e"/>
      <stop offset=".99" stop-color="#196461"/>
    </linearGradient>
  </defs>
  <g id="OBJECTS" >
    <path class="cls-1" d="m702.88,150.83c-2.63-10.42-6.68-20.75-12.11-30.84-1.81-3.36-4.01-6.91-8.54-9.07-4.5-2.15-10.24-2.45-15.79-2.18-1.67-2.77-3.27-5.55-5.03-8.33-1.44-2.28-2.85-4.58-4.17-6.92-.68-1.2-1.33-2.41-1.95-3.63-.44-.87-.92-2.87-1.69-3.49,1.66,1.33,3.62,2.36,5.74,3-4.69-8.62-8.74-15.89-11.01-24.87,1.09,1.37,2.69,2.41,4.48,2.93-2.26-3.6-3.89-7.52-4.81-11.56.29,1.09,1.48,1.95,2.75,1.96-4-9.16-8.17-20.99-8.24-22.29.4.38.93.66,1.49.79-1.23-1.14-2.17-2.52-2.74-4.02.78.69,1.07,1.3,1.93,1.3-2.55-6.54-2.97-9.19-3.48-13.05.53.47.69.68,1.02.68-1.42-3.41-2.17-4.81-3.15-9.45.43.7.49.3.91.67-1.3-2.55-2.87-9.96-2.87-12.48-.4,3.54-1.23,7.38-3.22,10.48.62-.35.88-.66,1.44-1.42-2.17,9.78-2.48,17.96-8.47,25.11l2.2-.64c-.34,1.76-.98,3.47-1.91,5.04.74-.33,1.48-.65,2.22-.98-2.44,6.77-3.82,9.86-8.39,15.82,1.51-.56,2.86-1.46,3.88-2.6-1.44,2.59-2.88,5.17-4.32,7.76,1.9-.05,2.7-.66,4.18-1.71-2.6,7.41-6.97,17.18-11.27,23.75,1.24-.09,2.19-.3,3.83-1.52-.96,2.48-1.69,3.75-2.8,5.48-1.53-3.56-2.83-7.19-3.8-11.14,1.09,1.41,2.69,2.49,4.48,3.03-2.26-3.72-3.89-7.76-4.81-11.93.29,1.13,1.48,2.01,2.75,2.02-4-9.46-8.17-21.66-8.24-23.01.4.39.93.68,1.49.81-1.23-1.18-2.17-2.6-2.74-4.15.78.71,1.07,1.35,1.93,1.35-2.55-6.75-2.97-9.49-3.48-13.47.53.49.69.7,1.02.7-1.42-3.52-2.17-4.96-3.15-9.75.43.73.49.31.91.69-1.3-2.63-2.87-10.28-2.87-12.88-.4,3.66-1.23,7.62-3.22,10.82.62-.36.88-.69,1.44-1.47-2.17,10.1-2.48,18.53-8.47,25.92l2.2-.66c-.34,1.81-.98,3.58-1.91,5.21.74-.34,1.48-.68,2.22-1.01-2.44,6.99-3.82,10.18-8.39,16.33,1.51-.58,2.86-1.51,3.87-2.68-1.44,2.67-2.88,5.34-4.32,8.01,1.9-.05,2.7-.68,4.18-1.77-1.95,5.74-4.89,12.85-8.06,18.91-1.92-6.1-3.47-11.96-3.45-12.76.3.33.71.58,1.15.72-.92-.99-1.6-2.15-1.97-3.39.58.6.78,1.11,1.47,1.16-1.66-5.4-1.85-7.55-2.03-10.68.4.41.52.59.78.61-.94-2.82-1.46-3.99-1.98-7.77.3.59.38.27.69.59-.9-2.12-1.72-8.16-1.57-10.19-.53,2.82-1.42,5.85-3.2,8.22.52-.24.74-.48,1.24-1.06-2.32,7.72-3.05,14.27-8.28,19.65.6-.13,1.2-.25,1.8-.38-.37,1.39-.99,2.72-1.83,3.93.61-.22,1.23-.44,1.84-.66-2.36,5.29-3.65,7.69-7.67,12.2,1.25-.36,2.38-1,3.27-1.86-1.31,1.99-2.62,3.98-3.93,5.97,1.53.07,2.21-.37,3.46-1.13-1.95,4.49-4.85,10.06-7.84,14.67-1.95-4.24-3.63-8.46-3.66-9.03.25.21.59.36.94.43-.78-.63-1.37-1.39-1.73-2.21.49.38.67.72,1.22.72-1.61-3.6-1.88-5.05-2.2-7.17.34.26.44.38.64.38-.9-1.87-1.37-2.64-1.99-5.19.27.39.31.17.58.37-.82-1.4-1.81-5.48-1.81-6.86-.25,1.95-.78,4.06-2.03,5.76.39-.19.55-.36.91-.78-1.37,5.38-1.57,9.87-5.35,13.8l1.39-.35c-.21.97-.62,1.91-1.21,2.77.47-.18.93-.36,1.4-.54-1.54,3.72-2.41,5.42-5.3,8.7.95-.31,1.81-.8,2.45-1.43-.91,1.42-1.82,2.84-2.73,4.27,1.2-.03,1.71-.36,2.64-.94-1.27,3.16-3.22,7.09-5.3,10.38-1.49-2.82-2.63-5.26-2.66-5.65.25.17.59.3.94.36-.78-.52-1.37-1.15-1.73-1.84.49.32.67.6,1.22.6-1.61-2.99-1.88-4.2-2.2-5.96.34.22.44.31.64.31-.9-1.56-1.37-2.2-1.99-4.32.27.32.31.14.58.31-.82-1.16-1.81-4.55-1.81-5.71-.25,1.62-.78,3.38-2.03,4.79.39-.16.55-.3.91-.65-1.37,4.47-1.57,8.21-5.35,11.48.46-.1.93-.19,1.39-.29-.21.8-.62,1.58-1.21,2.31.47-.15.93-.3,1.4-.45-1.54,3.09-2.41,4.51-5.3,7.23.95-.25,1.81-.67,2.45-1.19-.91,1.18-1.82,2.36-2.73,3.55,1.2-.02,1.71-.3,2.64-.78-1.11,2.28-2.71,4.31-3.8,6.57-.78,1.61-1.4,3.78-3.45,4.32,1.03-.27,2.06-.54,3.08-.81-.86,1.07-1.83,2.05-2.9,2.92.61-.04,1.21-.24,1.73-.57-.8,1.27-2,2.3-3.38,2.89.41-.55.64-1.24.64-1.92-.65.78-1.3,1.57-1.96,2.35.38-.75.52-1.63.4-2.46-.38,1.15-1.24,2.13-2.32,2.65.59-1.17.54-2.65-.13-3.77-.15,1.39-.72,2.73-1.61,3.81.13-.63.16-1.28.09-1.93-.53.76-1.07,1.52-1.6,2.29-.18-.69-.24-1.42-.17-2.13-.3.43-.56.89-.77,1.37.03-.76.06-1.52.1-2.27-1,.85-1.54,2.22-1.38,3.52-.79-1.17-1.72-2.32-2.39-3.56-.4-.74-.59-1.94-1.16-2.55.32.35.79.58,1.28.63-.86-1.41-1.25-1.97-1.83-3.55.74.59,1.18.69,1.74.73-1.96-3.16-3.94-7.87-5.12-11.43.67.51,1.04.8,1.9.82-.65-1.25-1.31-2.49-1.96-3.74.46.55,1.08.98,1.76,1.25-2.08-2.87-2.7-4.36-3.81-7.62.34.16.67.31,1.01.47-.42-.76-.72-1.58-.87-2.43.33.1.67.2,1,.31-2.72-3.44-2.86-7.38-3.85-12.09.26.37.37.52.66.68-.9-1.49-1.28-3.34-1.46-5.05,0,1.21-.71,4.78-1.3,6.01.19-.18.22.02.41-.32-.45,2.23-.79,2.91-1.43,4.55.15,0,.22-.1.46-.33-.23,1.86-.43,3.13-1.58,6.28.39,0,.52-.29.88-.63-.26.72-.69,1.39-1.24,1.93.26-.06.5-.2.68-.38-.03.63-1.93,6.32-3.75,10.73.57,0,1.12-.42,1.25-.94-.42,1.95-1.16,3.83-2.18,5.57.81-.25,1.54-.75,2.04-1.41-1.03,4.33-2.87,7.83-5,11.98.96-.31,1.85-.8,2.61-1.45-.35.3-.57,1.26-.77,1.68-.28.59-.58,1.17-.89,1.75-.66,1.24-1.28,2.71-2.13,3.89-.34.35-.69.7-1.09.99-.09.06-.23.12-.3.04-.04-.04-.03-.11-.03-.16.03-.43.07-.86.1-1.29-.48.35-.84.83-1.24,1.26-.41.43-.91.82-1.49.89.08-.78.82-1.46.66-2.23-.7.95-1.44,1.86-2.23,2.73-.1.11-.26.23-.39.14.17-.85.24-1.72.22-2.59-.39.94-1.02,1.77-1.78,2.46.09-.5.08-1.01-.08-1.5-.4.65-.79,1.3-1.19,1.95-.1.17-.31.37-.47.25-.09-.07-.1-.21-.09-.32.04-.81.2-1.61.45-2.38-.5,1.02-1.07,2.01-1.73,2.94-.08.11-.18.24-.32.24-.19,0-.29-.21-.34-.39-.25-.93-.25-1.9-.25-2.86-.41,1.02-.72,2.09-.93,3.17-.87-1.02-1.12-2.41-1.34-3.73-.17,1.35-.34,2.71-.51,4.06-.3-1.05-.47-2.15-.5-3.24-.36,1.28-.75,2.55-1.18,3.8-.22.06-.32-.26-.32-.48,0-.62,0-1.25,0-1.87-.45.81-.91,1.62-1.36,2.42-.11-1.03-.06-2.07.15-3.09-.87.85-1.36,2.06-1.35,3.27-.51-.91-1.03-1.82-1.54-2.72.17,1.07.08,2.19-.28,3.21-.06.16-.14.34-.31.37-.25.04-.38-.29-.4-.54-.04-.57.03-1.14.2-1.68-.99.65-1.8,1.56-2.33,2.62-.12-.81.23-1.6.58-2.34-.92.7-1.68,1.6-2.23,2.61-.11-.89-.08-1.8.09-2.68-.87.67-1.59,1.53-2.1,2.5-.36-.78-.61-1.61-.76-2.45-.17,1.05-.63,2.04-1.33,2.84-.3-.94-.27-1.99.1-2.9-.72.62-1.31,1.39-1.74,2.24,0-.64.09-1.29.25-1.91-.8.8-1.42,1.77-1.81,2.83-.25-.67-.32-1.41-.18-2.12-.39.64-.7,1.33-.93,2.05-.24-.75-.48-1.5-.72-2.25.1.81-.35,1.53-.93,2.14.08-.49.09-1.01.03-1.5l-1.53,2.42c-.19-.01-.22-.27-.2-.45.07-.67.15-1.34.22-2.02-.59.73-1.08,1.54-1.46,2.4-.23-.07-.3-.36-.31-.6-.04-.59-.04-1.19.01-1.78-.54.69-.97,1.46-1.29,2.27-.41-.88-.81-1.75-1.22-2.63-.12,1.02-.25,2.07-.78,2.94-.24,0-.34-.3-.36-.53-.06-.61-.1-1.22-.1-1.83-.76.83-1.53,1.66-2.29,2.49.25-.71.47-1.42.66-2.15-.86.72-1.61,1.57-2.22,2.5,0-.81.22-1.61.45-2.39-.81.71-1.43,1.63-1.78,2.66-.17-1.07-.48-2.11-.91-3.1-.09.66-.22,1.33-.52,1.93-.3.6-.78,1.13-1.4,1.37.12-.62.29-1.23.51-1.83-.7.59-1.39,1.18-2.09,1.77.01-.72.31-1.43.8-1.96-.71.39-1.36.9-1.93,1.48.16-.44.24-.91.21-1.38-.01-.23-.05-.47-.09-.7-.88,1.09-1.75,2.17-2.63,3.26-.02-.69,0-1.38.04-2.06-.51.62-.89,1.35-1.11,2.12-.25,0-.26-.37-.18-.61.26-.81.52-1.62.79-2.43-.87.76-1.53,1.76-1.88,2.87-.32-.65-.54-1.35-.64-2.07-.15.67-.3,1.34-.44,2.01-.27-.83-.62-1.64-1.04-2.42-.02.96-.35,1.92-.92,2.69-.12.16-.37.32-.49.17.09-.42.18-.85.28-1.27-.96.75-2.07,1.3-3.25,1.61.73-.61,1.51-1.33,1.59-2.27-.94.88-2,1.65-3.13,2.28.41-.66.82-1.42.63-2.17-.75.92-1.6,1.76-2.54,2.48-.06-.59.1-1.21.46-1.68-.57.42-1.07.95-1.46,1.54.09-.77.3-1.53.62-2.25-.81.65-1.55,1.4-2.19,2.21-.02-.9.27-1.81.81-2.53-.87.66-1.6,1.49-2.15,2.43-.03-.88.19-1.77.62-2.54-1.02.6-1.39,1.89-2.16,2.79-.21-.85.03-1.79.63-2.43-.74.44-1.36,1.06-1.85,1.77-.09-.56-.2-1.12-.37-1.66-.47.74-.94,1.48-1.4,2.22-.16.25-.44.53-.69.38-.14-.08-.19-.27-.21-.43-.04-.26-.09-.52-.13-.78-.15.43-.33.86-.51,1.27-.46-.57-.38-1.4-.27-2.12-.76.57-1.36,1.35-1.71,2.24-.27-.49-.3-1.07-.32-1.63-.25.58-.51,1.15-.76,1.72-.4-.31-.37-.91-.3-1.41.05-.33.09-.66.14-.99-.95.5-1.41,1.58-1.81,2.58-.15-.61-.12-1.27.08-1.87-.54.52-.98,1.16-1.26,1.86-.19-.74.01-1.52.22-2.26-.73.67-1.22,1.6-1.34,2.59-.17-.84-.51-1.65-1-2.36.03.89-.31,1.79-.92,2.44-.08.08-.19.16-.28.11-.12-.06-.08-.24-.02-.36.16-.35.31-.69.47-1.04-.52.44-1.03.88-1.55,1.31.05-.47.26-.9.47-1.32-.62.42-1.2.89-1.73,1.42.09-.67.39-1.32.85-1.82-.6.33-1.16.74-1.67,1.2,0-.44,0-.89-.04-1.33-.72.57-1.45,1.15-2.17,1.72-.11.09-.3.17-.38.05-.05-.08,0-.19.06-.27.34-.52.68-1.04,1.03-1.56-.95.33-1.69,1.07-2.4,1.78-.01-.49.13-.98.41-1.39-.47.47-.89.97-1.27,1.51.04-.74-.03-1.49-.21-2.21-.31.77-.81,1.47-1.45,2.01-.1.08-.21.17-.34.16.3-.54.49-1.14.57-1.75-.82.48-1.54,1.13-2.12,1.88.12-.66.36-1.3.71-1.87-.53.32-1.03.69-1.49,1.11.11-.44.18-.89.16-1.34-.5.95-1.24,1.76-2.14,2.34-.1.07-.24.13-.34.06.18-.45.33-.92.45-1.39-.6.34-1.15.77-1.64,1.26-.15.16-.33.33-.55.32.04-.61.41-1.14.76-1.63-.56.27-1.06.67-1.44,1.16-.12.16-.26.34-.46.36-.12-.65.19-1.29.48-1.88-.63.54-1.16,1.19-1.57,1.92-.03-.73-.05-1.45-.08-2.18-.26.71-.52,1.42-.94,2.04-.03-.77-.1-1.55-.23-2.31-.51.88-1.18,1.68-1.97,2.33-.07.06-.15.11-.23.09-.14-.05-.11-.25-.05-.38.17-.39.33-.78.5-1.17-.64.22-1,.88-1.48,1.35-.06.06-.17.12-.23.06.2-.55.43-1.09.7-1.61-.72.49-1.35,1.09-1.87,1.78.07-.84.41-1.66.96-2.31-.72.47-1.34,1.08-1.84,1.79-.02-.53-.07-1.06-.18-1.58-.52.64-1.03,1.29-1.55,1.93-.06.07-.14.15-.22.12-.07-.02-.09-.11-.11-.18-.06-.29-.12-.58-.18-.88-.22.48-.48.93-.77,1.36-.03-.62-.06-1.23-.09-1.85-.36.88-1.04,1.61-1.88,2.04-.09-.77.1-1.57.51-2.23-.72.38-1.29,1.03-1.58,1.79-.06.17-.16.38-.34.37-.04-.67.11-1.35.43-1.93-.92.46-1.68,1.26-2.09,2.2-.24-.16-.35-.47-.33-.76.02-.29.14-.56.26-.82-.49.27-.88.73-1.07,1.26-.04.1-.09.22-.2.21-.14,0-.15-.21-.12-.34.1-.42.21-.84.31-1.25-.68.33-.8,1.25-1.31,1.81-.06-.84-.31-1.67-.71-2.41-.24.91-.52,1.88-1.23,2.51-.07-.48.03-.98.29-1.38-.62.3-1.13.82-1.43,1.45-.02-.79.24-1.59.72-2.22-.5.39-.97.81-1.41,1.27-.09.09-.17.19-.26.29-.08-.51-.19-1.01-.34-1.51-.41.68-.91,1.31-1.46,1.87-.1.1-.23.21-.36.16-.06-.02-.11-.07-.15-.12-.19-.27-.14-.63-.08-.96.04-.21.07-.42.11-.63-.63.51-1.17,1.14-1.59,1.84-.14-.62.1-1.26.33-1.85-.61.48-1.09,1.11-1.4,1.82-.11,0-.16-.14-.16-.25-.01-.49.06-.98.22-1.44-.63.36-.99,1.05-1.31,1.7-.22-.27-.27-.64-.21-.98s.22-.65.37-.96c-.38.16-.69.48-.9.83s-.35.75-.48,1.15c-.29-.64-.57-1.28-.86-1.92-.03.58-.07,1.19-.37,1.69-.05.09-.16.18-.25.12-.04-.03-.05-.09-.06-.15-.03-.55.1-1.14-.18-1.61-.43.56-.91,1.1-1.42,1.59l.24-1.21c-.51.52-1.01,1.03-1.52,1.55-.04-.69.17-1.38.57-1.94-.5.39-.97.84-1.39,1.31-.17-.46-.36-.91-.61-1.33-.47.51-.94,1-1.43,1.49-.09.09-.19.19-.32.23-.13.04-.29,0-.35-.11-.05-.09-.03-.19-.01-.29.07-.39.15-.79.22-1.18-.59.37-1.08.9-1.42,1.51-.03.06-.07.13-.14.16-.18.06-.26-.22-.23-.4.08-.47.24-.92.49-1.32-.69.37-1.29.93-1.71,1.6-.09-.62-.02-1.26.21-1.84-.8.49-1.41,1.26-1.7,2.15-.47-.48-.35-1.27-.19-1.93-.52.52-.91,1.18-1.11,1.9-.17.03-.27-.18-.29-.35-.11-.67-.02-1.38.26-2-.71.48-1.06,1.34-1.37,2.15-.22-.8-.56-1.57-1-2.27.03.77.05,1.58-.33,2.24-.04.07-.08.13-.15.17-.16.09-.36-.05-.42-.22s-.02-.36,0-.54c.02-.18,0-.38-.12-.51-.34.5-.7.99-1.09,1.46-.01-.54.1-1.09.34-1.58-.69.42-1.28,1-1.74,1.68-.08-.87.21-1.77.79-2.42-.58.41-1.1.91-1.55,1.47-.07-.44-.15-.87-.26-1.3-.21.37-.43.73-.64,1.1-.07.12-.15.25-.28.29-.26.09-.5-.21-.54-.49-.04-.28.03-.57-.1-.82-.34.56-.58,1.17-.7,1.81-.36-.18-.33-.7-.25-1.09.08-.42.17-.84.25-1.27-.87.3-1.23,1.31-1.49,2.19-.24-.9-.23-1.86.04-2.75-.77.67-1.2,1.71-1.13,2.72-.38-.83-.88-1.6-1.49-2.29.14.89-.08,1.82-.6,2.55-.19-.47-.27-.98-.23-1.48-.61.32-1.15.8-1.54,1.37-.17-.5-.14-1.07.1-1.55-.77.25-1.46.73-1.95,1.38-.26-.68-.11-1.5.36-2.06-1,.24-1.8,1.17-1.88,2.2-.5-.7-1.01-1.41-1.51-2.11.14.55.17,1.13.08,1.69-.3-.67-.64-1.32-1.01-1.95,0,.65-.15,1.31-.47,1.88-.04-.87-.17-1.73-.4-2.56-.29,1.02-.97,1.93-1.86,2.5.3-.42.6-.84.9-1.26-.74.37-1.45.81-2.11,1.3.36-.46.71-.92,1.07-1.38-.62.33-1.2.74-1.73,1.2,0-.02.01-.04.02-.06.11-.4.22-.83.07-1.22-.95.34-1.58,1.27-2.53,1.63-.11.04-.27.06-.32-.05-.02-.06,0-.12.02-.17.22-.61.55-1.17.97-1.66-1,.41-1.95.94-2.81,1.58.11-.68.52-1.27.93-1.83-1.1.41-2.03,1.18-2.93,1.94.2-.78.39-1.59.21-2.37-.54.9-1.3,1.67-2.2,2.2.15-.55.42-1.06.79-1.49-.9.28-1.7.79-2.49,1.3.32-.59.65-1.18.97-1.77-.94.48-1.85,1.03-2.72,1.64.6-.63.8-1.6.52-2.42-.49,1.04-1.38,1.88-2.45,2.29.19-.72.62-1.38,1.19-1.86-.91.35-1.73.93-2.37,1.67.1-.62.42-1.2.88-1.62-.88.46-1.69,1.03-2.42,1.71-.04-.76.31-1.52.91-1.99-.74.46-1.49.98-2.05,1.64.1-.59.06-1.23,0-1.82-.5.6-1.11,1.1-1.8,1.48.14-.4.29-.8.43-1.2-.71.33-1.35.82-1.86,1.42.08-.7.34-1.38.75-1.96-1,.38-1.86,1.13-2.39,2.06-.02,0-.04,0-.07,0l-.14-2.43c-.5,1.09-1.62,1.86-2.81,1.93.61-.73,1.02-1.63,1.18-2.57-.85.48-1.7.97-2.55,1.45-.28.16-.62.32-.89.16.21-.41.52-.77.89-1.04-1.18.41-2.35.88-3.48,1.42.34-.64.76-1.24,1.25-1.78-.82.35-1.57.87-2.16,1.53.29-.72.37-1.53.22-2.29-.41,1.09-1.36,1.96-2.48,2.28.4-.49.75-1.02,1.04-1.59-.8.55-1.64,1.12-2.61,1.22.7-.49,1.25-1.18,1.59-1.97-.8.7-1.68,1.29-2.63,1.77.27-.66.47-1.34.61-2.03-.17.38-.51.64-.84.89-.53.41-1.07.82-1.6,1.22-.07-.66.31-1.35.9-1.65-.68.27-1.32.66-1.89,1.11.11-.32.14-.65.07-.98-.33.42-.73.78-1.18,1.06-.1-.73.24-1.44.56-2.09-.75.39-1.4.96-1.87,1.66-.09.14-.27.3-.4.2-.09-.07-.08-.2-.05-.31.14-.67.34-1.32.6-1.95-.98.27-1.47,1.47-2.43,1.79.06-.88.33-1.75.78-2.52-.96.6-1.76,1.46-2.29,2.46-.03-.81-.23-1.6-.6-2.32-.19.88-.66,1.7-1.32,2.31-.22-1.24.08-2.56.81-3.58-1.32.55-2.35,1.74-2.73,3.12-.25-.17-.22-.55-.16-.84.09-.45.18-.9.27-1.35-.72.47-1.3,1.15-1.64,1.94-.14-.71-.17-1.45-.11-2.17-.45.7-1.05,1.29-1.75,1.74-.09.06-.21.11-.29.03-.03-.03-.04-.08-.04-.13,0-.24.12-.46.25-.67l.86-1.41c-.85.61-1.69,1.22-2.54,1.83-.21.15-.51.29-.69.12.56-.44.91-1.15.91-1.87-.54.79-1.34,1.42-2.24,1.75-.14.05-.34.08-.4-.06-.04-.08,0-.17.03-.25.2-.46.46-.91.76-1.32-.79.4-1.5.97-2.08,1.64-.04,0-.07-.01-.11-.02-.09-.82.11-1.67.57-2.36-.55.51-1.12,1.07-1.42,1.74-.8-1.88,2.16-7.57,2.66-9.16.29-.92.56-2.02-.02-2.79-.47-.63-1.32-.79-2.03-1.14-1.54-.76-2.43-2.53-2.43-4.25,0-1.72.79-3.37,1.88-4.7.47.56,1.25,1.39,2.29,1.69.64-1.53-.28-3.45-.91-3.99-.16-.14-.33-.26-.44-.44-.12-.2-.16-.43-.2-.66-.36-1.94-1.41-3.36-3-4.52-2.59-1.9-5.96-2.22-9.13-2.7-2.19-.33-4.38-.55-6.49-1.23-4.19-1.36-8.45-1.56-11.14-2.3-.48-.13-.97-.28-1.36-.59-.32-.25-.55-.59-.76-.93-.48-.74-.93-1.51-1.16-2.36-.41-1.54-.31-4.02.58-5.39.4-.62.64-.57,1.4-.62.88-.07,1.57-.82,1.94-1.62.37-.81.51-1.7.84-2.52-1.82-.44-3.52,1.6-5.29,1.55.63-.88,1.4-1.58,2.48-2,3.01-1.15,6.77-1.74,9.68-3.13,1.7-.81,2.94-2.15,3.84-3.66.31-.06.62-.12.93-.22,1.27-.39,2.37-1.2,3.28-2.16.91-.96,2.46-2.88,2.35-3.19-.1-.3-3.27,3.89-5.96,4.42,1.66-3.57,1.66-7.5,1.26-7.38-.22.06-.76,2.15-.96,3.29-.49,2.74-2.08,5.26-4.33,6.88-.29.21-.59.4-.9.58,1.07-1.3,1.73-2.95,1.97-4.63.33-2.31-.52-6.99-.78-6.9-.21.07-.15,2.3-.14,4.06-1.2-1.44-2.04-4.5-2.26-4.43-.24.08-.18,1.05-.06,1.57.06.28.17.56.29.83.52,1.2,1.24,2.3,2.01,3.36-.02.71-.05,1.43-.21,2.12-.19.83-.55,1.62-.9,2.39-.4.88-1.11,1.81-2.02,2.61-1.49.56-3.08.91-4.65,1.17.83-1.17,1.3-2.54.77-3.33-.22-.33-.16,1.69-2.44,3.62-.59.12-1.16.27-1.71.51-1.34.59-2.37,1.63-3.22,2.84-.34-.28-.67-.59-1.04-.82-.59-.36-1.25-.52-1.94-.6.07-.94.02-1.85-.22-2.7-.15-.51-.36-.98-.59-1.42-.08-2.87,1.12-4.39.82-4.27-.74.29-1.28,1.62-1.53,3.03-.67-1.16-1.3-2.39-1.76-3.73-.01-1.17.15-2.31.45-3.24.26-.81.53-1.63.91-2.39.32-.63.72-1.2,1.12-1.76,1.02-.34,2.03-.75,3-1.36.22-.14.43-.28.63-.46.36-.33.96-1.04.88-1.24-.07-.19-2.28,1.65-3.75,2.03,1.02-1.35,2.35-3.02,2.28-3.21-.09-.23-3.24,2.85-4.41,4.83-.85,1.43-1.45,3.1-1.65,4.75-.06-.33-.1-.66-.13-1-.24-2.62.39-5.52,1.71-7.92.55-1,1.48-2.93,1.4-3.11-.14-.33-2.43,2.58-3.73,6.22-.95-2.16-.24-6.96-.46-6.8-.24.18-.54,2.59-.62,3.88-.08,1.29.03,2.58.47,3.65.07.16.15.31.22.46-.5,1.81-.71,3.73-.26,5.49.72,2.83,2.35,5.57,3.26,8.28.21.61.28,1.24.26,1.88-.08,0-.17,0-.25,0-.29,0-.59-.03-.84-.18-.21-.13-.35-.34-.5-.53-.76-.95-1.91-1.58-3.12-1.69,0,1.77.69,3.53,1.87,4.84.17.19.37.39.45.64.11.34-.01.7-.13,1.04-.62,1.77-1.26,3.56-2.23,5.16-.19.31-.4.64-.41,1.01,0,.47.35.88.78,1.06.43.18.91.17,1.37.09.21-.03.42-.08.63-.04.51.11.75.69.89,1.2.61,2.19,1,4.43,1.14,6.7.09,1.41.1,2.85.56,4.19.83,2.43,2.95,4.05,4.61,5.89.03.03.05.06.08.08-.04.49-.08.98-.15,1.46,0,.07-.02.14-.03.21-.34,2.31-.87,4.59-1.47,6.85-.37,1.38-.82,2.74-1.24,4.1-.47,1.53-1.34,2.97-2.51,4.09.14-.72.28-1.44.42-2.15-.6.71-1.27,1.36-1.99,1.93.21-.91.58-1.78,1.07-2.58-.85.66-1.65,1.4-2.36,2.21.5-.8.72-1.77.62-2.71-.57,1.14-1.46,2.12-2.54,2.8.74-.69,1.24-1.62,1.4-2.62-.72,1.23-1.91,2.18-3.27,2.61.86-.66,1.5-1.61,1.77-2.66-.54.88-1.36,1.57-2.31,1.97.56-.71.86-1.62.84-2.52-.79,1.22-1.94,2.6-3.37,2.32.39-.88.88-1.71,1.45-2.48-1.15.49-2.23,1.15-3.19,1.95.47-.95,1.12-1.81,1.91-2.53-1.07.41-2.02,1.14-2.68,2.07-.09-.9-.17-1.79-.26-2.69-.15.88-.67,1.7-1.39,2.22.16-.61.43-1.19.8-1.7-.89.37-1.71.9-2.42,1.57.54-.68,1.03-1.4,1.46-2.15-1.04.37-1.98,1.02-2.69,1.87.4-.86.74-1.75,1.02-2.66-.9.52-1.66,1.29-2.18,2.2-.25-.94-.6-1.86-1.02-2.73-.01.96-.29,1.91-.78,2.73-.21-1.32-.04-2.7.49-3.93-1.26.74-1.89,2.18-2.45,3.53-.24-1.01-.27-2.07-.09-3.09-.62.73-1.11,1.57-1.42,2.47-.66-.86-1-1.96-.93-3.04-.36.78-.57,1.64-.61,2.5-.44-.72-.59-1.61-.42-2.43-.31.7-.52,1.45-.61,2.22-.64-.75-.91-1.8-.7-2.76-.52.58-.82,1.27-1.07,1.99-.72-.5-1.33-1.25-2-1.8-.8-.66-.82-1.17-.75-2.21.03-.45.05-.91.08-1.37.45.77,1.36,2.29,1.9,2.3.37,0,.62-.4.63-.77.01-.37-.13-.72-.18-1.08-.12-.92.39-1.81,1.02-2.49.63-.68,1.4-1.23,1.98-1.96,1.47-1.83,1.47-4.31,1.9-6.51.57-2.89,1.86-5.57,3.12-8.2,1.04-2.16,1.33-4.67.82-7.01-.23-1.06-.62-2.08-.87-3.14-.25-1.06-.35-2.14-.45-3.22-.2-2.13-.28-4.35-.48-6.54.1-.45.21-.89.35-1.33.2-.61.44-1.2.56-1.83.16-.82.09-1.67-.02-2.51-.1-.76-.24-1.66-.47-2.54.91-.18,1.79-.53,2.52-1.1,1-.78,1.7-2.01,1.66-3.28-1.32,1.05-3.14,1.12-4.76,1.61.17-1.22.57-2.33,1.46-3.31,2.38-2.62,5.78-5.07,7.94-7.87,1.26-1.63,1.81-3.57,1.95-5.49.28-.21.55-.43.8-.67,1.05-1.01,1.73-2.35,2.15-3.75.42-1.39.98-4.04.72-4.3-.25-.25-1.28,5.44-3.65,7.29-.14-4.32-2.1-8.18-2.43-7.87-.18.17.33,2.48.69,3.7.88,2.93.57,6.19-.83,8.9-.18.35-.38.69-.6,1.02.4-1.81.23-3.75-.37-5.52-.83-2.43-3.98-6.59-4.2-6.38-.17.17,1,2.33,1.88,4.05-1.89-.82-4.23-3.4-4.41-3.22-.2.2.35,1.12.72,1.57.21.25.44.46.69.67,1.11.92,2.36,1.64,3.64,2.29.33.71.66,1.43.85,2.18.23.91.27,1.86.31,2.8.04,1.07-.19,2.32-.69,3.57-1.18,1.29-2.56,2.42-3.98,3.46.23-1.56,0-3.13-.9-3.65-.38-.22.69,1.74-.59,4.76-.52.41-1.01.84-1.42,1.35-.88,1.08-1.37,2.37-1.64,3.74-1.17-.47-2.63-.39-3.71,0-.03.01-.06.02-.09.03-.27-1.38-.75-2.69-1.64-3.77-.42-.51-.91-.94-1.42-1.35-1.28-3.02-.21-4.98-.59-4.76-.91.51-1.13,2.09-.9,3.65-1.42-1.04-2.8-2.17-3.98-3.46-.5-1.24-.73-2.5-.69-3.57.04-.94.07-1.89.31-2.8.19-.76.52-1.47.85-2.18,1.29-.65,2.54-1.37,3.64-2.29.25-.21.49-.42.69-.67.37-.45.92-1.37.72-1.57-.18-.18-2.52,2.4-4.41,3.22.88-1.73,2.05-3.88,1.88-4.05-.22-.22-3.37,3.95-4.2,6.38-.6,1.76-.77,3.71-.37,5.52-.21-.33-.41-.67-.6-1.02-1.41-2.71-1.71-5.98-.83-8.9.37-1.22.87-3.53.69-3.7-.33-.31-2.29,3.54-2.43,7.87-2.37-1.85-3.4-7.54-3.65-7.29-.26.26.3,2.91.72,4.3.42,1.39,1.1,2.74,2.15,3.75.25.24.52.46.8.67.13,1.92.68,3.86,1.95,5.49,2.17,2.8,5.56,5.25,7.94,7.87.72.79,1.12,1.67,1.33,2.63-.64-.17-1.3-.27-1.94-.44-.93-.25-1.88-.7-2.35-1.55-.23,1.48.37,3.02,1.41,4.09.54.56,1.18.99,1.88,1.33-.09.43-.14.88-.17,1.31-.24,3.09-.86,5.78-1.78,8.74-.19.61-.38,1.23-.69,1.78-1.42,2.54-4.8,3.29-7.35,4.16-2.15.74-4.31,1.47-6.46,2.21-3.06,1.05-6.35,2.27-8.08,5-.72,1.14-1.18,2.54-2.32,3.25,1.09.6,2.5.55,3.55-.12-.46.29.53,3.25.63,3.71.25,1.19.46,2.56.3,3.78-.12.91-.48,1.76-.94,2.56-.79,1.38-1.86,2.61-3.13,3.57-.51.38-1.08.77-1.25,1.38-.09.3-.06.63-.04.94.09,1.16.22,2.32.41,3.46.08.5.24.9.12,1.41-.1.44-.79,1.35-.78.37,0-.26.12-.53.04-.77-.27.5-.54,1-.82,1.49,0-.82,0-1.64,0-2.46-.13.96-.77,1.84-1.64,2.26.41-.65.59-1.43.53-2.19-.2.83-.73,1.57-1.45,2.03.38-.83.76-1.77.44-2.62-.68.93-1.52,1.75-2.47,2.42.26-.78.51-1.56.74-2.35-.89.61-1.68,1.38-2.3,2.27-.07-.91.03-1.83.28-2.7-.95.71-1.69,1.69-2.1,2.81-.51-.83-1.04-1.66-1.53-2.47.37-.02.76-.02,1.14-.07-3.29-3.51-10.75-14.62-12.27-17.79.45.42,1.11.7,1.8.76-1.21-1.71-1.76-2.39-2.57-4.31,1.04.71,1.65.84,2.44.89-2.75-3.83-5.53-9.55-7.19-13.87.94.62,1.46.97,2.67,1-.92-1.51-1.84-3.02-2.76-4.53.65.66,1.51,1.19,2.47,1.52-2.91-3.48-3.79-5.29-5.35-9.24.47.19.94.38,1.41.57-.59-.92-1.01-1.92-1.22-2.95.47.12.93.25,1.4.37-3.82-4.18-4.02-8.95-5.4-14.67.36.44.53.63.92.83-1.27-1.81-1.79-4.05-2.05-6.12,0,1.47-1,5.8-1.83,7.29.27-.22.31.02.58-.39-.63,2.71-1.1,3.53-2.01,5.52.21,0,.31-.12.65-.4-.33,2.25-.6,3.8-2.22,7.62.55,0,.73-.36,1.23-.76-.36.87-.96,1.68-1.75,2.35.36-.08.7-.24.95-.46-.04.76-2.71,7.67-5.26,13.02.81,0,1.57-.51,1.75-1.15-.58,2.36-1.62,4.65-3.07,6.75,1.14-.3,2.16-.91,2.86-1.71-.74,2.68-1.78,5.11-3.02,7.51-1.21-2.45-2.15-4.51-2.6-5.73.48.58,1.18.96,1.91,1.05-1.28-2.34-1.87-3.27-2.73-5.9,1.11.97,1.76,1.15,2.6,1.21-2.92-5.25-5.88-13.07-7.65-18.99,1,.84,1.55,1.33,2.84,1.37-.98-2.07-1.95-4.14-2.93-6.21.69.91,1.6,1.63,2.63,2.08-3.1-4.77-4.04-7.24-5.69-12.65.5.26,1,.52,1.5.78-.63-1.26-1.07-2.63-1.3-4.03.5.17.99.34,1.49.51-4.06-5.72-4.28-12.26-5.75-20.08.39.61.56.86.98,1.14-1.35-2.47-1.91-5.55-2.18-8.38,0,2.02-1.06,7.94-1.94,9.98.28-.3.33.02.62-.54-.67,3.71-1.17,4.83-2.14,7.56.22,0,.33-.17.69-.55-.35,3.08-.63,5.2-2.36,10.43.58,0,.78-.49,1.31-1.04-.39,1.2-1.03,2.3-1.86,3.21.39-.1.74-.33,1.01-.63-.05,1.04-2.88,10.5-5.59,17.83.86-.01,1.67-.69,1.86-1.57-.62,3.23-1.73,6.37-3.26,9.25,1.22-.42,2.3-1.25,3.04-2.35-.71,3.31-1.69,6.33-2.83,9.3-.89-1.88-1.57-3.44-1.97-4.49.61.73,1.48,1.21,2.4,1.32-1.61-2.94-2.35-4.11-3.44-7.42,1.4,1.22,2.21,1.44,3.27,1.53-3.67-6.6-7.4-16.44-9.62-23.89,1.26,1.06,1.95,1.67,3.57,1.72-1.23-2.6-2.46-5.2-3.69-7.81.87,1.14,2.02,2.05,3.31,2.61-3.9-6-5.08-9.11-7.16-15.92.63.33,1.26.66,1.89.99-.79-1.59-1.35-3.31-1.63-5.07.63.21,1.25.43,1.88.64-5.11-7.19-5.38-15.42-7.23-25.26.48.76.7,1.08,1.23,1.43-1.69-3.11-2.4-6.98-2.74-10.54,0,2.54-1.34,10-2.45,12.56.36-.37.41.03.78-.68-.84,4.67-1.48,6.08-2.69,9.51.28,0,.41-.21.87-.69-.44,3.88-.8,6.55-2.97,13.13.74,0,.98-.62,1.65-1.31-.49,1.5-1.29,2.89-2.34,4.04.48-.13.93-.41,1.28-.79-.06,1.31-3.63,13.21-7.04,22.43,1.08-.02,2.1-.87,2.34-1.97-.78,4.07-2.17,8.01-4.1,11.63,1.53-.52,2.89-1.57,3.83-2.95-1.94,9.04-5.4,16.36-9.4,25.02,1.8-.65,3.48-1.68,4.9-3.02-.66.62-1.06,2.64-1.44,3.51-.53,1.23-1.09,2.44-1.67,3.65-1.13,2.35-2.33,4.67-3.56,6.96-2.4,4.49-4.45,8.99-6.99,13.41.77-.63,1.61-1.18,2.48-1.64-.53,1.67-1.56,4.15-2.42,5.72-5.09.17-10.37.42-15.9.74,1.83,23.23,3.03,37.55,4.86,60.77l30.95,4.6c158.41,10.72,564.31,6.28,607.81,4.52,24.36-1,52.45-6.04,59.24-20.91,2.52-5.54,1.51-11.6.03-17.46ZM167.39,115.14c.25-.86.69-1.77,1.23-2.63.12,0,.23,0,.35.03.51.1.57.38.71.86.33,1.12.37,2.29.42,3.45.05,1.13.09,2.26.14,3.4.01.35.03.7-.05,1.03-.09.39-.29.74-.5,1.08-.56.89-1.24,1.71-2,2.43-.34.32-.69.62-1,.97.06-1.88-.06-8.07.7-10.61Zm-135.15,1.61c-.01.05-.03.1-.04.15-.08-.22-.18-.43-.28-.65.13-.06.26-.12.39-.18-.04.22-.06.45-.07.68Zm2.86.47c-.11-.07-.2-.14-.3-.21.07-.04.14-.07.21-.12.04.04.08.09.12.13-.01.06-.01.13-.03.19Zm87.97,7.73s-.04-.07-.05-.09c.04,0,.09.01.14.02-.03.02-.06.05-.09.07Zm3.74,1.5c-.16.19-.55.32-.84.22-.35-.41-.39-.91-.21-1.38.4.06.8.11,1.19.16,0,.12.02.25.02.37,0,.21,0,.44-.16.63Zm24.3,3.89c-.02.1-.05.21-.08.31-.27-.74-.54-1.48-.81-2.22-.32.44-.58.93-.76,1.44.11-1.05.22-2.1.33-3.15-.05.99-.65,1.93-1.52,2.39.51-.66.9-1.42,1.13-2.23-.89.93-1.9,1.75-2.99,2.44.64-.67.98-1.61.9-2.53-.41.87-1.05,1.62-1.84,2.17.3-.68.4-1.44.27-2.17-.3.51-.61,1.02-.91,1.54.01-.42.02-.84.03-1.26-.29.35-.57.7-.86,1.05l-.15-1.23c-.09.4-.24.79-.43,1.16-.04.08-.09.16-.18.17-.07,0-.13-.03-.18-.07-1.47-1.07-1.31-2.93-1.25-4.6.03-.87.74-1.41,1.39-1.84.78-.52,1.51-1.11,2.18-1.76.7-.69,1.34-1.45,2.12-2.06.63-.49,1.35-.87,2.03-1.29.04-.02.07-.05.11-.07-.39,1.05-.91,2.06-1.55,2.98-.22.31-.46.64-.46,1.03,0,.37.24.69.46.99.79,1.1,1.43,2.3,1.9,3.56.64,1.7,1.47,3.41,1.1,5.24Zm8.16.92s-.02.05-.04.07c-.03-.83.06-1.67.24-2.48-.57.68-1.03,1.45-1.34,2.29-.31-.38-.22-.94-.03-1.39.18-.45.45-.9.41-1.39-.77.71-1.38,1.61-1.74,2.6-.14-.75-.51-1.45-1.06-1.98.21.65.17,1.38-.11,2-.23-.67-.74-1.25-1.37-1.57-1.29-.65-1.29-1.98-1.55-3.31-.18-.91-.47-1.78-.73-2.66-.22-.73-.43-1.57-.05-2.23.22-.39.61-.64.99-.89,2.4-1.56,4.84-3.27,6.27-5.75.25-.43.45-.88.63-1.33.56.22,1.11.49,1.49.96.3.38.45.85.59,1.31.84,2.77,1.44,5.61,1.79,8.48.31,2.52.85,4.67.21,7.25-.05.18-.15.4-.33.38-.18-.02-.25-.23-.27-.41-.11-.78-.14-1.57-.1-2.35-.67.68-1.16,1.55-1.38,2.48.1-.88.21-1.76.31-2.64-.57.75-.98,1.62-1.21,2.54-.21-1.17-.55-2.32-1-3.42.18,1.18-.04,2.41-.61,3.46Zm274.55,14.29s-.02,0-.02,0c0,0,0,0,0-.01h.01Zm-18.23,1.89s-.02,0-.03,0c0-.01.02-.02.03-.03v.03Zm-204.96-18.97c.24-1.66,1-3.48,2.6-3.97.83-.25,1.72-.09,2.57.08,3.61.7,5.37,1.41,8.33,2.11.36,1.57,1.42,2.9,2.49,4.12.7.8,1.42,1.57,2.16,2.33.23.24.47.49.54.82.04.19.01.39-.03.58-.34,1.63-1.61,2.77-2.37,4.17-.8,1.48-2.48,2.42-3.28,3.9.37-.68.63-1.42.76-2.18-.67.7-1.29,1.46-1.83,2.26.15-.8.3-1.6.45-2.41-.73.67-1.33,1.48-1.76,2.37.05-1.1.26-2.19.62-3.22-.75.54-1.38,1.25-1.85,2.05.17-.71.35-1.41.52-2.12-.81.73-1.49,1.61-2,2.57.43-.77.65-1.65.63-2.53-.4,1.11-1.26,2.06-2.33,2.56.81-.77,1.37-1.79,1.59-2.88-.76,1.22-1.9,2.2-3.22,2.76l1.75-3.12c-.9.66-1.73,1.4-2.5,2.21.35-.68.66-1.38.93-2.09-.64.8-1.29,1.6-1.93,2.4-.01-.83.11-1.66.36-2.45-.4.79-.98,1.49-1.67,2.04-.22-.8-.06-1.7.42-2.38-.65.47-1.15,1.14-1.39,1.91-.51-1.9-.43-3.96-.57-5.91-.14-1.99-.27-4.02.01-6Zm-7.75,3.79c.43-.94.88-1.86,1.36-2.77.17-.33,1.63-2.45,1.51-2.69.23.44.45.89.63,1.39,1.15,3.28,2.04,7.04,1.85,10.5-.02.34-.04.69-.2.99-.18.34-.52.58-.9.64.31-.71.38-1.53.21-2.28-.35.8-.8,1.55-1.35,2.22.08-1.03.05-2.06-.12-3.08-.16,1.01-.62,1.98-1.31,2.74.04-.98.21-1.95.51-2.87-.73.71-1.29,1.6-1.63,2.56.11-.78.21-1.56.32-2.34-.67.58-1.09,1.45-1.12,2.34-.37-.58-.62-1.24-.72-1.92-.23.6-.32,1.26-.25,1.9-1.58-2.18.23-5.23,1.18-7.33Zm33.08,4.31c-.21,1.52-.55,3.02-1.02,4.48-.23.7-.18,1.12-.86,1.49.03-.08.06-.16.1-.23-.31.17-.61.35-.9.55-.3.1-.6.2-.88.33.1-.44.36-.85.61-1.24-.83.46-1.53,1.15-2.01,1.97.16-.88.14-1.78-.06-2.65-.23,1.24-1.28,2.28-2.52,2.5.29-.6,1.08-.88,1.24-1.52-.87.52-1.84.85-2.85.98.38-.57.86-1.07,1.42-1.46-.75.26-1.46.63-2.13,1.05,1.06-1.15,2.04-2.38,2.92-3.68.76-1.13,1.93-2.12,2.94-3.03.4-.36.85-.78.85-1.31,0-.27-.12-.53-.24-.78-.32-.66-.65-1.33-.95-2.02.81.64,1.68,1.23,2.68,1.77.64.35,1.35.73,1.61,1.42.17.43.12.91.06,1.37Zm312.24-30.79c-.05-.14-.09-.28-.13-.42.09-.05.19-.11.29-.17.03.02.06.05.1.07-.09.18-.17.35-.25.52Zm27.9-15.9c-.06-.29-.12-.58-.17-.87.04-.02.07-.04.11-.07.08.14.18.26.29.38-.08.19-.15.38-.23.56Zm37.78-3.26c-.11-.24-.21-.48-.32-.71.37-.2.72-.44,1.01-.74-.18.41-.42.9-.69,1.45Z"/>
  </g>
</svg>