<?xml version="1.0" encoding="UTF-8"?>
<svg id="Layer_2" data-name="Layer 2" xmlns="http://www.w3.org/2000/svg" xmlns:xlink="http://www.w3.org/1999/xlink" viewBox="0 0 634.63 161.63">
  <defs>
    <style>
      .cls-1 {
        fill: url(#linear-gradient);
      }
    </style>
    <linearGradient id="linear-gradient" x1="306.95" y1="178.56" x2="331.21" y2="40.97" gradientUnits="userSpaceOnUse">
      <stop offset=".37" stop-color="#f4fff1"/>
      <stop offset=".51" stop-color="#ebffed"/>
      <stop offset=".74" stop-color="#d4ffe4"/>
      <stop offset=".89" stop-color="#c2ffde"/>
    </linearGradient>
  </defs>
  <g id="OBJECTS">
    <path class="cls-1" d="m484.96,89.09c-6.36.06-12.72.22-19.07.48-10.75.44-21.55,1.14-32.23-.15-7.74-.94-15.31-2.92-22.85-4.9-13.32-3.49-28.69-11.01-32.62-10.35-3.94.66-29.13,12.13-35.54,12.13s-36.21-11.43-47.98-14.4c-30.97-7.83-62.26-14.89-91.53-28.04-12.63-5.67-25.18-12.02-38.8-14.49-8.08-1.46-16.63-1.59-23.93-5.36-4.67-2.41-8.48-6.16-12.58-9.46-7.75-6.24-16.7-10.99-26.21-13.9-1.49-.46-3.07-.87-4.59-.52-1.79.41-3.17,1.81-4.44,3.14C59.55,37.9,26.76,74.39,1.86,115.43c-1.3,2.14-2.6,4.83-1.36,7,.96,1.69,3.05,2.3,4.94,2.72,40.76,9.26,83.54,4.38,124.67,11.83,21.34,3.87,41.95,11,63.12,15.7,33.4,7.42,67.84,8.7,102.05,8.9,93.62.56,187.29-6.73,279.7-21.77,9.23-1.5,18.79-4.57,28.07-5.18,7.96-.52,14.96,1.51,22.65-2.56,6.43-3.4,11-11.48,8-18.1-1.36-3-4.02-5.22-6.81-6.97-7.81-4.88-17.07-6.77-26.14-8.37-38.19-6.74-77.01-9.94-115.79-9.55Z"/>
  </g>
</svg>