<?xml version="1.0" encoding="utf-8"?>
<!-- Generator: Adobe Illustrator 27.4.1, SVG Export Plug-In . SVG Version: 6.00 Build 0)  -->
<svg version="1.1" id="Layer_1" xmlns="http://www.w3.org/2000/svg" xmlns:xlink="http://www.w3.org/1999/xlink" x="0px" y="0px"
	 viewBox="0 0 596.3 381.7" style="enable-background:new 0 0 596.3 381.7;" xml:space="preserve">
<style type="text/css">
	.st0{fill:url(#SVGID_1_);}
	.st1{opacity:0.25;}
	.st2{fill:url(#SVGID_00000083769717736241463910000000295244159765397694_);}
	.st3{fill:url(#SVGID_00000051353314357270985210000003896508990337513137_);}
</style>
<g>
	<g id="Layer_2_00000057141421548809693230000013085782341214258846_">
		<g id="OBJECTS">
			<g>
				
					<linearGradient id="SVGID_1_" gradientUnits="userSpaceOnUse" x1="298.1624" y1="2.31" x2="298.1624" y2="384" gradientTransform="matrix(1 0 0 -1 0 384)">
					<stop  offset="0.36" style="stop-color:#FFFFDB"/>
					<stop  offset="0.47" style="stop-color:#FAFEDB"/>
					<stop  offset="0.6" style="stop-color:#EDFBDC"/>
					<stop  offset="0.73" style="stop-color:#D7F7DE"/>
					<stop  offset="0.86" style="stop-color:#B9F1E1"/>
					<stop  offset="1" style="stop-color:#92EAE4"/>
					<stop  offset="1" style="stop-color:#92EAE5"/>
				</linearGradient>
				<rect x="0" class="st0" width="596.3" height="381.7"/>
				<g class="st1">
					
						<linearGradient id="SVGID_00000152249325303009531660000013700085739927165107_" gradientUnits="userSpaceOnUse" x1="298.1463" y1="123.9866" x2="298.1463" y2="217.5259" gradientTransform="matrix(1 0 0 -1 0 384)">
						<stop  offset="0.36" style="stop-color:#FFFFDB"/>
						<stop  offset="0.47" style="stop-color:#FAFEDB"/>
						<stop  offset="0.6" style="stop-color:#EDFBDC"/>
						<stop  offset="0.73" style="stop-color:#D7F7DE"/>
						<stop  offset="0.86" style="stop-color:#B9F1E1"/>
						<stop  offset="1" style="stop-color:#92EAE4"/>
						<stop  offset="1" style="stop-color:#92EAE5"/>
					</linearGradient>
					<path style="fill:url(#SVGID_00000152249325303009531660000013700085739927165107_);" d="M0,198.3c9.1-0.3,25.6-7.2,34.3-9.7
						c10.4-3,20.9-5.9,31.3-8.9c4.2-1.2,8.4-2.4,12.8-2.5c5.9-0.1,11.6,1.7,17.1,3.5c21.6,7.1,43.2,14.1,64.7,21.2
						c9.2,3,18.7,6.1,28.5,5.9c10.2-0.2,20-4,29.5-7.7c14.8-5.8,29.6-11.6,44.4-17.4c4.7-1.8,9.4-3.7,14.4-4
						c5.4-0.3,10.7,1.2,15.8,2.7c25.6,7.4,51.1,14.9,76.7,22.3c9,2.6,18.2,5.2,27.5,4.1c6.9-0.8,13.3-3.6,19.7-6.4
						c24-10.5,48-21,72-31.5c3.8-1.6,7.6-3.3,11.7-3.6c4.1-0.3,8.2,0.9,12.2,2c27.2,7.4,55.6,10.1,83.6,14
						c-5.5,26.4-1.4,56.3,0,73.4c-22.3,3.1-46.8,2-68.5,2.9c-55.1,2.1-110.3,1.5-165.3-1.7c-7.7-0.5-15.4-1-23.1-1.5
						c-81.6-5.9-163.1-17.7-244.9-16c-31.6,0.6-63.1-1.4-94.5-3.2C-0.4,236.3,3.1,199.1,0,198.3"/>
				</g>
				
					<linearGradient id="SVGID_00000017486205324171875600000002665088113295371648_" gradientUnits="userSpaceOnUse" x1="368.1577" y1="156.2932" x2="368.1577" y2="243.5756" gradientTransform="matrix(1 0 0 -1 -1.285044e-02 383.9917)">
					<stop  offset="9.000000e-02" style="stop-color:#FFDCB9;stop-opacity:0.5"/>
					<stop  offset="0.23" style="stop-color:#FEDDB8;stop-opacity:0.52"/>
					<stop  offset="0.38" style="stop-color:#FEE0B8;stop-opacity:0.56"/>
					<stop  offset="0.54" style="stop-color:#FDE5B7;stop-opacity:0.64"/>
					<stop  offset="0.71" style="stop-color:#FCECB6;stop-opacity:0.74"/>
					<stop  offset="0.87" style="stop-color:#FAF6B4;stop-opacity:0.87"/>
					<stop  offset="1" style="stop-color:#F9FFB3"/>
				</linearGradient>
				<circle style="fill:url(#SVGID_00000017486205324171875600000002665088113295371648_);" cx="368.1" cy="184.1" r="43.6"/>
			</g>
		</g>
	</g>
</g>
</svg>
