<?xml version="1.0" encoding="UTF-8"?>
<svg id="Layer_2" data-name="Layer 2" xmlns="http://www.w3.org/2000/svg" viewBox="0 0 210.71 65.67">
  <defs>
    <style>
      .cls-1 {
        fill: #4d9374;
      }

      .cls-2 {
        fill: #7bb79a;
      }

      .cls-3 {
        fill: #a1d3b9;
      }
    </style>
  </defs>
  <g id="OBJECTS">
    <g>
      <path class="cls-2" d="m104.77,40.16c-.85-.65-2.12-.31-3.1-.43-.06,0,.02-.15-.03-.19-.04-.03-.06-.07-.09-.1-.13-.13-.34-.08-.5,0-.15.09-.3.22-.47.25-.45.08-1.14-.27-1.55-.44-1.35-.56-2.03-1.39-4.26-1.01,1.88-.02,3.47,1.36,4.41,2.42-.26.21-.54.29-.87.27.66.53,2.12.19,2.83-.27.67-.44,2.36-.9,3.63-.5"/>
      <path class="cls-2" d="m53.7,42.11c-.96-.48-2.14.08-3.13.15-.06,0,0-.15-.06-.18-.04-.02-.07-.06-.11-.08-.15-.1-.35-.02-.49.1-.14.12-.25.27-.42.33-.43.16-1.17-.06-1.6-.15-1.43-.31-2.26-.99-4.37-.21,1.84-.36,3.66.7,4.78,1.57-.21.25-.48.38-.81.43.75.4,2.12-.21,2.73-.79.58-.56,2.16-1.32,3.48-1.16"/>
      <path class="cls-3" d="m13.24.54c-1.24-.63-2.78.11-4.07.19-.08,0,0-.19-.08-.23-.05-.03-.09-.08-.14-.11-.19-.13-.46-.02-.63.13s-.33.35-.54.43c-.56.21-1.52-.08-2.09-.2C3.82.34,2.75-.55,0,.47,2.4,0,4.76,1.38,6.21,2.51c-.28.33-.62.5-1.05.55.97.52,2.76-.27,3.55-1.03.76-.72,2.8-1.71,4.52-1.5"/>
      <path class="cls-1" d="m134.05,64.78c.51-.27,1.18-.02,1.74-.02.03,0,0-.08.03-.09.02-.01.04-.03.06-.05.08-.06.19-.02.27.03s.15.13.24.15c.25.07.65-.07.88-.13.78-.2,1.21-.57,2.41-.24-1.03-.13-2,.47-2.58.94.13.12.28.18.46.19-.4.22-1.18-.04-1.54-.32-.34-.27-1.24-.6-1.97-.48"/>
      <path class="cls-2" d="m162.17,57.47c.62-.46,1.57-.26,2.3-.37.05,0-.02-.1.02-.13.03-.02.04-.05.07-.07.09-.09.25-.07.37,0,.12.06.22.14.35.16.34.04.84-.21,1.15-.34.99-.42,1.49-1,3.15-.79-1.4.03-2.56,1.01-3.24,1.76.19.14.4.18.65.16-.48.38-1.58.18-2.11-.12-.51-.28-1.77-.56-2.71-.25"/>
      <path class="cls-3" d="m203.16,30.73c.68-.38,1.59-.06,2.33-.08.05,0,0-.1.03-.12.03-.02.05-.04.08-.06.1-.08.26-.03.37.04.11.07.2.17.33.2.33.08.86-.11,1.18-.19,1.04-.29,1.61-.81,3.23-.39-1.39-.14-2.67.68-3.44,1.34.18.16.38.23.63.24-.53.31-1.59-.02-2.08-.38-.47-.35-1.69-.77-2.66-.59"/>
      <path class="cls-1" d="m127.25,58.05c-.65-.44-1.56-.13-2.29-.18-.05,0,0-.11-.03-.14-.03-.02-.05-.05-.07-.07-.1-.09-.25-.05-.36.03-.11.07-.21.17-.33.2-.33.08-.85-.15-1.15-.26-1.01-.35-1.55-.93-3.16-.55,1.37-.09,2.59.84,3.33,1.58-.18.16-.38.24-.62.24.5.36,1.56.04,2.06-.32.47-.35,1.69-.76,2.63-.52"/>
    </g>
  </g>
</svg>