<?xml version="1.0" encoding="UTF-8"?>
<svg id="Layer_2" data-name="Layer 2" xmlns="http://www.w3.org/2000/svg" xmlns:xlink="http://www.w3.org/1999/xlink" viewBox="0 0 734.48 95.92">
  <defs>
    <style>
      .cls-1 {
        fill: url(#linear-gradient);
      }
    </style>
    <linearGradient id="linear-gradient" x1="367.24" y1="95.92" x2="367.24" y2="0" gradientUnits="userSpaceOnUse">
      <stop offset="0" stop-color="#fffff3"/>
      <stop offset=".26" stop-color="#fafef2"/>
      <stop offset=".54" stop-color="#edfef0"/>
      <stop offset=".83" stop-color="#d7fdec"/>
      <stop offset="1" stop-color="#c8fdea"/>
    </linearGradient>
  </defs>
  <g id="OBJECTS">
    <path class="cls-1" d="m0,42.4c9.81-7.87,21.02-14.56,33.44-16.52,12.47-1.97,25.11.95,37.49,3.39,27.64,5.46,55.95,8.49,84.14,7.1,26.23-1.29,48.46-10.04,73.58-16.64,2.94-.77,5.95-1.55,8.98-1.3,4.94.41,9.19,3.47,13.37,6.13,21.72,13.87,47.56,19.4,72.78,24.69,9.71,2.04,19.63,4.08,29.48,2.92,7.91-.93,15.42-3.89,22.76-6.97,18.31-7.68,36.23-16.27,53.67-25.74,10.77-5.85,27.94-17.12,39.92-19.23,5.5-.97,11,1.21,16.22,3.21,73.95,28.34,157.01,28.5,228.95,61.62,7.74,3.56,15.79,7.95,19.69,15.53-10.6,4.2-22.16,5.26-33.55,5.88-79.86,4.34-159.89-10.94-239.71-5.82-46.31,2.97-92.03,12.78-138.39,14.83-90.04,3.99-179.82-21.36-269.64-13.93"/>
  </g>
</svg>